<svg width="35" height="26" viewBox="0 0 35 26" fill="none" xmlns="http://www.w3.org/2000/svg">
<g clip-path="url(#clip0_107_7)">
<path d="M33 0.5H2C1.17157 0.5 0.5 1.17157 0.5 2V24C0.5 24.8284 1.17157 25.5 2 25.5H33C33.8284 25.5 34.5 24.8284 34.5 24V2C34.5 1.17157 33.8284 0.5 33 0.5Z" stroke="black" stroke-opacity="0.26"/>
<path d="M16.2287 13.1971V8.29759H21.6181V13.1971" stroke="#021752" stroke-linejoin="round"/>
<path d="M24.0679 13.1971V8.29759H29.4574V13.1971" stroke="#021752" stroke-linejoin="round"/>
<rect x="13.8502" y="13.4521" width="18.1081" height="4.17511" rx="1.5" stroke="#021752"/>
<path d="M27.9875 18.1885V22.1081H25.5378H30.4373" stroke="#021752" stroke-linecap="round" stroke-linejoin="round"/>
<path d="M26.0277 8.78755V10.7474H27.4976V8.78755" stroke="#021752" stroke-linecap="round" stroke-linejoin="round"/>
<path d="M18.1671 8.57321V10.533H19.6369V8.57321" stroke="#021752" stroke-linecap="round" stroke-linejoin="round"/>
<rect x="3.5" y="3.5" width="10.2689" height="18.1081" rx="1.5" stroke="#021752"/>
<rect x="5.94974" y="5.94975" width="5.36937" height="4.38947" rx="0.5" stroke="#021752"/>
</g>
<defs>
<clipPath id="clip0_107_7">
<rect width="35" height="26" fill="white"/>
</clipPath>
</defs>
</svg>
