<svg width="35" height="26" viewBox="0 0 35 26" fill="none" xmlns="http://www.w3.org/2000/svg">
<path d="M33 0.5H2C1.17157 0.5 0.5 1.17157 0.5 2V24C0.5 24.8284 1.17157 25.5 2 25.5H33C33.8284 25.5 34.5 24.8284 34.5 24V2C34.5 1.17157 33.8284 0.5 33 0.5Z" stroke="black" stroke-opacity="0.26"/>
<rect x="4" y="3" width="28" height="2" rx="1" fill="#D9D9D9"/>
<rect x="4" y="6" width="28" height="2" rx="1" fill="#D9D9D9"/>
<rect x="4" y="9" width="28" height="2" rx="1" fill="black"/>
<rect x="4" y="12" width="28" height="2" rx="1" fill="#D9D9D9"/>
<rect x="4" y="15" width="28" height="2" rx="1" fill="#D9D9D9"/>
<rect x="4" y="18" width="28" height="2" rx="1" fill="#D9D9D9"/>
<rect x="4" y="21" width="28" height="2" rx="1" fill="#D9D9D9"/>
</svg>
